HIERARCHY
ROOT joint_Root
{
	OFFSET 0.0 0.0 0.0
	CHANNELS 6 Xposition Yposition Zposition Zrotation Xrotation Yrotation 
	JOINT Hips
	{
		OFFSET 4.5925 91.4895 -427.239
		CHANNELS 6 Xposition Yposition Zposition Zrotation Xrotation Yrotation 
		JOINT Spine
		{
			OFFSET 15.7357 0.0 0.0
			CHANNELS 6 Xposition Yposition Zposition Zrotation Xrotation Yrotation 
			JOINT Chest
			{
				OFFSET 8.98455 -0.406207 0.0
				CHANNELS 6 Xposition Yposition Zposition Zrotation Xrotation Yrotation 
				JOINT Neck
				{
					OFFSET 16.3773 0.0 0.0
					CHANNELS 6 Xposition Yposition Zposition Zrotation Xrotation Yrotation 
					JOINT Head
					{
						OFFSET 6.45672 0.0 0.0
						CHANNELS 6 Xposition Yposition Zposition Zrotation Xrotation Yrotation 
						End Site
						{
							OFFSET 0.0 0.0 0.0
						}
					}
				}
				JOINT Shoulder_L
				{
					OFFSET 12.9942 -0.242716 4.98039
					CHANNELS 6 Xposition Yposition Zposition Zrotation Xrotation Yrotation 
					JOINT UpperArm_L
					{
						OFFSET 5.34809 0.0 0.0
						CHANNELS 6 Xposition Yposition Zposition Zrotation Xrotation Yrotation 
						JOINT LowerArm_L
						{
							OFFSET 24.3286 1.87007e-05 0.0
							CHANNELS 6 Xposition Yposition Zposition Zrotation Xrotation Yrotation 
							JOINT Hand_L
							{
								OFFSET 22.2916 0.0 0.0
								CHANNELS 6 Xposition Yposition Zposition Zrotation Xrotation Yrotation 
								End Site
								{
									OFFSET 0.0 0.0 0.0
								}
							}
						}
					}
				}
				JOINT Shoulder_R
				{
					OFFSET 12.9945 -0.242716 -4.98039
					CHANNELS 6 Xposition Yposition Zposition Zrotation Xrotation Yrotation 
					JOINT UpperArm_R
					{
						OFFSET -5.34813 0.0 0.0
						CHANNELS 6 Xposition Yposition Zposition Zrotation Xrotation Yrotation 
						JOINT LowerArm_R
						{
							OFFSET -24.3289 0.000322201 0.0
							CHANNELS 6 Xposition Yposition Zposition Zrotation Xrotation Yrotation 
							JOINT Hand_R
							{
								OFFSET -22.2915 -0.000108084 0.0
								CHANNELS 6 Xposition Yposition Zposition Zrotation Xrotation Yrotation 
								End Site
								{
									OFFSET 0.0 0.0 0.0
								}
							}
						}
					}
				}
			}
		}
		JOINT UpperLeg_L
		{
			OFFSET -2.19248 -6.46944 0.0
			CHANNELS 6 Xposition Yposition Zposition Zrotation Xrotation Yrotation 
			JOINT LowerLeg_L
			{
				OFFSET 39.0811 0.0 -1.23785e-05
				CHANNELS 6 Xposition Yposition Zposition Zrotation Xrotation Yrotation 
				JOINT Foot_L
				{
					OFFSET 40.9854 0.0 -1.26872e-05
					CHANNELS 6 Xposition Yposition Zposition Zrotation Xrotation Yrotation 
					JOINT Toes_L
					{
						OFFSET 11.7543 0.0 0.0
						CHANNELS 6 Xposition Yposition Zposition Zrotation Xrotation Yrotation 
						End Site
						{
							OFFSET 0.0 0.0 0.0
						}
					}
				}
			}
		}
		JOINT UpperLeg_R
		{
			OFFSET -2.19251 6.46944 0.0
			CHANNELS 6 Xposition Yposition Zposition Zrotation Xrotation Yrotation 
			JOINT LowerLeg_R
			{
				OFFSET -39.0811 -0.00228153 -0.0401928
				CHANNELS 6 Xposition Yposition Zposition Zrotation Xrotation Yrotation 
				JOINT Foot_R
				{
					OFFSET -40.9854 0.0 0.0
					CHANNELS 6 Xposition Yposition Zposition Zrotation Xrotation Yrotation 
					JOINT Toes_R
					{
						OFFSET -11.7543 0.0 0.0
						CHANNELS 6 Xposition Yposition Zposition Zrotation Xrotation Yrotation 
						End Site
						{
							OFFSET 0.0 0.0 0.0
						}
					}
				}
			}
		}
	}
}
MOTION
Frames:	4
Frame Time:	0.0333333
0.000000 0.000000 0.000000 0.000000 0.000000 -0.000000 3.961600 91.094500 1.682890 89.232500 -13.697300 3.957700 15.735700 0.000005 -0.000001 71.534000 85.463500 -69.074200 8.984550 -0.406207 -0.000000 0.911148 -3.019770 4.940690 16.377300 -0.000001 -0.000001 9.136160 -4.054750 -3.460500 6.456720 -0.000001 -0.000000 3.229210 -6.199680 0.802684 12.994200 -0.242716 4.980390 -84.948400 -9.866320 -62.711400 5.348090 -0.000007 -0.000001 -44.734400 -59.757400 -89.630100 24.328600 0.000019 0.000005 18.267800 9.919590 -62.444400 22.291600 -0.000001 0.000005 19.704000 5.356380 -1.570320 12.994500 -0.242716 -4.980390 87.859200 8.492350 -75.795100 -5.348130 -0.000001 -0.000004 -63.624500 22.876200 -4.233290 -24.328900 0.000322 -0.000009 0.488882 1.249580 -21.411500 -22.291500 -0.000108 -0.000004 17.164800 5.408050 -3.201010 -2.192480 -6.469440 -0.000000 -178.065000 -18.874000 -2.047740 39.081100 -0.000007 -0.000012 -0.155634 0.299931 27.424900 40.985400 -0.000006 -0.000013 1.247370 -0.025345 -71.481600 11.754300 -0.000000 0.000003 -0.000238 -0.002143 -16.658000 -2.192510 6.469440 -0.000001 173.790000 15.563200 175.206000 -39.081100 -0.002282 -0.040193 -0.071642 0.141449 27.917600 -40.985400 0.000008 0.000006 3.267420 17.210600 -69.543000 -11.754300 -0.000006 -0.000006 -0.000243 -0.003987 -16.735800
0.000000 0.000000 0.000000 0.000000 0.000000 -0.000000 3.733530 91.160200 1.497400 89.277100 -13.096100 3.826990 15.735700 0.000005 -0.000001 72.423000 85.451000 -70.135900 8.984550 -0.406207 -0.000000 0.970317 -2.881910 4.595770 16.377300 -0.000001 -0.000001 8.770740 -3.978120 -3.204440 6.456720 -0.000001 -0.000000 2.984730 -6.010130 1.003430 12.994200 -0.242716 4.980390 -85.407100 -9.055730 -62.960900 5.348090 -0.000007 -0.000001 -43.322800 -58.614000 -84.417300 24.328600 0.000019 0.000005 18.542500 6.975550 -70.098200 22.291600 -0.000001 0.000005 19.889500 5.347210 -1.293990 12.994500 -0.242716 -4.980390 87.804900 8.711720 -75.798200 -5.348130 -0.000001 -0.000004 -63.675300 23.266800 -4.401690 -24.328900 0.000322 -0.000009 0.406283 1.036720 -21.452000 -22.291500 -0.000108 -0.000004 17.035700 5.407640 -3.187270 -2.192480 -6.469440 -0.000000 -177.880000 -19.091500 -2.214720 39.081100 -0.000007 -0.000012 -0.150708 0.292955 27.223300 40.985400 -0.000006 -0.000013 1.316290 0.867280 -71.198500 11.754300 -0.000000 0.000003 -0.000257 -0.002287 -16.663200 -2.192510 6.469440 -0.000001 173.824000 16.483100 175.239000 -39.081100 -0.002282 -0.040193 -0.090042 0.178493 27.608900 -40.985400 0.000008 0.000006 3.054580 17.581900 -69.259700 -11.754300 -0.000006 -0.000006 -0.000233 -0.003830 -16.729400
0.000000 0.000000 0.000000 0.000000 0.000000 -0.000000 3.487960 91.222400 1.298540 89.285800 -12.332400 3.702680 15.735700 0.000005 -0.000001 73.509800 85.424500 -71.366300 8.984550 -0.406207 -0.000000 1.064560 -2.721730 4.309450 16.377300 -0.000001 -0.000001 8.312620 -3.914430 -2.859320 6.456720 -0.000001 -0.000000 2.696010 -5.867830 1.147120 12.994200 -0.242716 4.980390 -85.985200 -8.156610 -63.679600 5.348090 -0.000007 -0.000001 -41.443200 -56.735200 -77.490000 24.328600 0.000019 0.000005 18.520400 3.701660 -79.093600 22.291600 -0.000001 0.000005 19.884800 5.331830 -0.839911 12.994500 -0.242716 -4.980390 87.759600 8.910190 -75.824200 -5.348130 -0.000001 -0.000004 -63.640000 23.758200 -4.525650 -24.328900 0.000322 -0.000009 0.320727 0.815138 -21.543300 -22.291500 -0.000108 -0.000004 16.987400 5.407110 -3.170010 -2.192480 -6.469440 -0.000000 -177.658000 -19.177500 -2.435310 39.081100 -0.000007 -0.000012 -0.150962 0.295166 27.087500 40.985400 -0.000006 -0.000013 1.365550 1.745110 -70.917100 11.754300 -0.000000 0.000003 -0.000253 -0.002256 -16.662100 -2.192510 6.469440 -0.000001 173.928000 17.430700 175.312000 -39.081100 -0.002282 -0.040193 -0.103934 0.207788 27.298700 -40.985400 0.000008 0.000006 2.833510 17.762500 -68.985900 -11.754300 -0.000006 -0.000006 -0.000050 -0.000837 -16.607800
0.000000 0.000000 0.000000 0.000000 0.000000 -0.000000 3.224250 91.278800 1.080020 89.283400 -11.472600 3.594630 15.735700 0.000005 -0.000001 74.439200 85.375800 -72.428200 8.984550 -0.406207 -0.000000 1.193450 -2.595150 4.046170 16.377300 -0.000001 -0.000001 7.741510 -3.904640 -2.409260 6.456720 -0.000001 -0.000000 2.426580 -5.633600 1.183880 12.994200 -0.242716 4.980390 -86.716400 -6.917810 -64.531300 5.348090 -0.000007 -0.000001 -38.829500 -53.782600 -69.259800 24.328600 0.000019 0.000005 17.827400 0.524564 -88.373600 22.291600 -0.000001 0.000005 19.834800 5.322130 -0.557152 12.994500 -0.242716 -4.980390 87.714200 9.154240 -75.915400 -5.348130 -0.000001 -0.000004 -63.454600 24.403800 -4.745890 -24.328900 0.000322 -0.000009 0.209455 0.534725 -21.489200 -22.291500 -0.000108 -0.000004 16.890000 5.407200 -3.173040 -2.192480 -6.469440 -0.000000 -177.421000 -19.157300 -2.674450 39.081100 -0.000007 -0.000012 -0.151182 0.296814 26.992100 40.985400 -0.000006 -0.000013 1.413130 2.660160 -70.645400 11.754300 -0.000000 0.000003 -0.000239 -0.002148 -16.658200 -2.192510 6.469440 -0.000001 174.066000 18.356900 175.390000 -39.081100 -0.002282 -0.040193 -0.117057 0.236069 27.015800 -40.985400 0.000008 0.000006 2.618670 17.828500 -68.730700 -11.754300 -0.000006 -0.000006 -0.000236 -0.003889 -16.731800
